<?xml version="1.0" standalone="no"?>
<!DOCTYPE svg PUBLIC "-//W3C//DTD SVG 1.1//EN" "http://www.w3.org/Graphics/SVG/1.1/DTD/svg11.dtd" >
<svg xmlns="http://www.w3.org/2000/svg" xmlns:xlink="http://www.w3.org/1999/xlink" version="1.1">
<metadata>
Created by FontForge 20170812 at Wed Jul 20 23:39:14 2005
 By www-data
Copr. DoubleAlex Team. All rights reserved.
</metadata>
<defs>
<font id="PartnerCondensed-Bold" horiz-adv-x="500" >
  <font-face 
    font-family="PartnerCondensed"
    font-weight="700"
    font-stretch="condensed"
    units-per-em="1000"
    panose-1="0 0 8 6 0 0 0 0 0 0"
    ascent="600"
    descent="-400"
    x-height="505"
    cap-height="722"
    bbox="-83 -400 1000 952"
    underline-thickness="56"
    underline-position="-152"
    unicode-range="U+0020-25CA"
  />
<missing-glyph 
 />
    <glyph glyph-name=".notdef" 
 />
    <glyph glyph-name=".null" horiz-adv-x="0" 
 />
    <glyph glyph-name="nonmarkingreturn" horiz-adv-x="333" 
 />
    <glyph glyph-name="space" unicode=" " horiz-adv-x="222" 
 />
    <glyph glyph-name="exclam" unicode="!" horiz-adv-x="333" 
d="M236 722l-22 -529h-96l-22 529h140zM106 120h120v-120h-120v120z" />
    <glyph glyph-name="quotedbl" unicode="&#x22;" horiz-adv-x="333" 
d="M318 463h-120v259h120v-259zM135 463h-120v259h120v-259z" />
    <glyph glyph-name="numbersign" unicode="#" horiz-adv-x="444" 
d="M186 403l-14 -108h86l14 108h-86zM48 0l25 193h-75v102h88l14 108h-73v102h86l25 193h86l-25 -193h86l25 193h86l-25 -193h75v-102h-88l-14 -108h73v-102h-86l-25 -193h-86l25 193h-86l-25 -193h-86z" />
    <glyph glyph-name="dollar" unicode="$" horiz-adv-x="444" 
d="M243 261v-166q52 10 52 74q0 53 -52 92zM200 95v194q-33 20 -50.5 31t-46.5 35.5t-44.5 46t-27.5 54.5t-12 70q0 84 49.5 128.5t131.5 52.5v77h43v-77q101 -2 140 -50.5t39 -151.5h-132q3 36 -8 64.5t-39 33.5v-180q8 -5 31 -18.5t33 -20t30.5 -21t31 -25.5t25 -29
t21.5 -35.5t12.5 -41t5.5 -49.5q0 -99 -50.5 -142t-139.5 -50v-86h-43v86q-59 0 -97.5 15t-58.5 46t-27 68t-7 91h138q0 -25 1 -38.5t5.5 -33t16 -30.5t29.5 -14zM200 451v152q-43 -13 -43 -68q0 -49 43 -84z" />
    <glyph glyph-name="percent" unicode="%" horiz-adv-x="778" 
d="M602 0q-81 0 -112.5 43.5t-31.5 136.5q0 43 6 74t20.5 58.5t44 42t73.5 14.5t73.5 -14.5t44 -42t20.5 -58.5t6 -74q0 -93 -31.5 -136.5t-112.5 -43.5zM602 79q31 0 40 23t9 89v25t-2.5 24.5t-7 25.5t-14.5 16t-25 8t-25 -8t-14.5 -16t-7 -25.5t-2.5 -24.5v-25
q0 -66 9 -89t40 -23zM569 711l-292 -732h-74l292 732h74zM176 329q-81 0 -112.5 43.5t-31.5 136.5q0 43 6 74t20.5 58.5t44 42t73.5 14.5t73.5 -14.5t44 -42t20.5 -58.5t6 -74q0 -93 -31.5 -136.5t-112.5 -43.5zM176 408q31 0 40 23t9 89v25t-2.5 24.5t-7 25.5t-14.5 16
t-25 8t-25 -8t-14.5 -16t-7 -25.5t-2.5 -24.5v-25q0 -66 9 -89t40 -23z" />
    <glyph glyph-name="ampersand" unicode="&#x26;" horiz-adv-x="667" 
d="M515 0l-44 57q-70 -69 -201 -69q-125 0 -191.5 56.5t-66.5 162.5q0 66 38 114.5t104 91.5q-25 32 -39 53.5t-27.5 57t-13.5 70.5q0 60 62.5 100t155.5 40q29 0 58.5 -7t58.5 -22t47.5 -44t18.5 -68q0 -17 -3.5 -33.5t-7 -28.5t-14 -27.5t-15 -23t-20 -22.5t-19.5 -19
t-22.5 -21t-21.5 -19l113 -148q16 58 16 144h122q0 -52 -1.5 -82.5t-13 -79.5t-34.5 -85l109 -148h-148zM383 144l-147 180q-73 -57 -73 -117q0 -52 29 -81.5t81 -29.5q73 0 110 48zM265 483q72 45 72 99q0 29 -16.5 45.5t-45.5 16.5q-25 0 -44 -16t-19 -41q0 -43 53 -104z
" />
    <glyph glyph-name="quotesingle" unicode="'" horiz-adv-x="250" 
d="M185 463h-120v259h120v-259z" />
    <glyph glyph-name="parenleft" unicode="(" horiz-adv-x="278" 
d="M139 755h79q-65 -273 -65 -431q0 -62 7.5 -129t15.5 -110t22.5 -110.5t19.5 -95.5h-79q-3 8 -18 52t-19 57t-16.5 53.5t-17.5 59t-13.5 54t-12 59.5t-6.5 54t-3 57q0 160 106 430z" />
    <glyph glyph-name="parenright" unicode=")" horiz-adv-x="278" 
d="M139 -121h-79q65 273 65 431q0 62 -7.5 129t-15.5 110t-22.5 110.5t-19.5 95.5h79q3 -8 18 -52t19 -57t16.5 -53.5t17.5 -59t13.5 -54t12 -59.5t6.5 -54t3 -57q0 -160 -106 -430z" />
    <glyph glyph-name="asterisk" unicode="*" horiz-adv-x="444" 
d="M222 490l-57 -137l-85 52l89 113l-137 -18v97l137 -17l-81 108l84 46l50 -124l50 124l84 -46l-81 -108l137 17v-97l-137 18l89 -113l-85 -52z" />
    <glyph glyph-name="plus" unicode="+" 
d="M195 308v197h111v-197h169v-111h-169v-197h-111v197h-170v111h170z" />
    <glyph glyph-name="comma" unicode="," horiz-adv-x="222" 
d="M25 -97l41 229h131l-76 -229h-96z" />
    <glyph glyph-name="hyphen" unicode="-" horiz-adv-x="333" 
d="M44 321h245v-102h-245v102z" />
    <glyph glyph-name="hyphen" unicode="&#xad;" horiz-adv-x="333" 
d="M44 321h245v-102h-245v102z" />
    <glyph glyph-name="period" unicode="." horiz-adv-x="222" 
d="M51 132h120v-132h-120v132z" />
    <glyph glyph-name="slash" unicode="/" horiz-adv-x="278" 
d="M71 -96h-103l239 818h102z" />
    <glyph glyph-name="zero" unicode="0" horiz-adv-x="444" 
d="M222 707q52 0 87 -12t58 -35.5t35.5 -68.5t17 -100t4.5 -140q0 -76 -3 -123t-14 -97t-32.5 -77.5t-59.5 -45t-93 -17.5t-93 17.5t-59.5 45t-32.5 77.5t-14 97t-3 123q0 85 4.5 140t17 100t35.5 68.5t58 35.5t87 12zM222 605q-43 0 -52 -43t-9 -213q0 -164 10 -210t51 -46
t51 46t10 210q0 170 -9 213t-52 43z" />
    <glyph glyph-name="one" unicode="1" horiz-adv-x="444" 
d="M49 459v131q92 51 135 108h134v-698h-151v537q-49 -41 -118 -78z" />
    <glyph glyph-name="two" unicode="2" horiz-adv-x="444" 
d="M426 0h-414v123q44 59 95 125t73 95t46.5 63t32.5 51.5t13.5 37.5t5.5 42q0 68 -53 68q-21 0 -34 -8.5t-18.5 -25.5t-7 -31t-1.5 -35h-141q-7 97 43.5 149.5t148.5 52.5q204 0 204 -180q0 -32 -9.5 -67t-29.5 -71t-38 -65t-49 -66t-47.5 -56.5t-48 -53.5t-37.5 -40h266
v-108z" />
    <glyph glyph-name="three" unicode="3" horiz-adv-x="444" 
d="M161 524h-141q0 104 48 146q44 37 152 37q99 0 145 -43.5t46 -142.5q0 -141 -95 -155v-2q62 -12 84 -55.5t22 -114.5q0 -106 -55 -154.5t-163 -48.5q-105 0 -148.5 44t-43.5 154h141v-28.5t3 -24t9 -23.5t17.5 -13.5t29.5 -6.5q23 0 37.5 9.5t21 27t8.5 33.5t2 38
q0 72 -25.5 89.5t-105.5 17.5v111q73 -3 96.5 15t23.5 88q0 83 -54 83q-34 0 -44.5 -21.5t-10.5 -59.5z" />
    <glyph glyph-name="four" unicode="4" horiz-adv-x="444" 
d="M22 159v141q100 235 157 370l12 28h185v-431h55v-108h-55v-159h-138v159h-216zM130 267h120l9 333h-2z" />
    <glyph glyph-name="five" unicode="5" horiz-adv-x="444" 
d="M175 590v-174l2 -2q31 47 101 47q83 0 116 -55.5t33 -174.5q0 -135 -50.5 -187.5t-162.5 -52.5q-91 0 -139.5 41.5t-45.5 131.5h141q0 -34 10 -50q13 -21 43 -21q40 0 51.5 30.5t11.5 107.5q0 85 -16 113q-15 27 -44 27q-28 0 -40.5 -24t-12.5 -54h-136v405h365v-108
h-227z" />
    <glyph glyph-name="six" unicode="6" horiz-adv-x="444" 
d="M218 93q37 0 51 28t14 107q0 70 -13 98.5t-51 28.5t-48.5 -31.5t-10.5 -107.5q0 -23 1 -38t6 -38t18 -35t33 -12zM417 547h-147q2 28 -9 45q-13 19 -40 19q-45 0 -54.5 -34.5t-9.5 -173.5q32 28 53.5 38t58.5 10q155 0 155 -222q0 -115 -48.5 -176.5t-161.5 -61.5
q-38 0 -68 9.5t-50.5 24.5t-35 39t-22.5 48t-12.5 57t-5.5 59t-1 62q0 67 1.5 111t6 92.5t14 78t25 58t38 44t55 24.5t74.5 9q85 0 135 -39t49 -121z" />
    <glyph glyph-name="seven" unicode="7" horiz-adv-x="444" 
d="M406 698v-133l-170 -565h-157l191 590h-239v108h375z" />
    <glyph glyph-name="eight" unicode="8" horiz-adv-x="444" 
d="M222 312q-15 0 -26.5 -5.5t-17.5 -18t-10 -22t-5.5 -28.5t-1.5 -25.5v-24.5q0 -95 61 -95t61 95v24.5t-1.5 25.5t-5.5 28.5t-10 22t-17.5 18t-26.5 5.5zM222 605q-55 0 -55 -91q0 -94 55 -94t55 94q0 91 -55 91zM222 -9q-202 0 -202 188q0 75 20.5 121t82.5 68v2
q-55 14 -76 52t-21 100q0 185 196 185t196 -185q0 -62 -21 -100t-76 -52v-2q62 -22 82.5 -68t20.5 -121q0 -188 -202 -188z" />
    <glyph glyph-name="nine" unicode="9" horiz-adv-x="444" 
d="M160 487q0 -24 1 -38.5t6 -37t18.5 -34t34.5 -11.5q63 0 63 124q0 121 -62 121q-21 0 -35 -12t-19 -35t-6 -38t-1 -39zM29 164h140q0 -33 10 -49q14 -22 42 -22q44 0 53.5 33.5t8.5 143.5v46q-46 -46 -116 -46q-75 0 -111.5 55.5t-36.5 133.5q0 248 199 248q31 0 56 -4
t44.5 -15t35 -21.5t26.5 -31t18.5 -35t12.5 -43.5t7.5 -46t4 -52.5t1.5 -54v-58.5q0 -36 -0.5 -58t-2.5 -56t-5.5 -55t-10.5 -49.5t-17.5 -45.5t-26 -36.5t-36 -30t-48 -17.5t-60.5 -7q-96 0 -143 39t-45 134z" />
    <glyph glyph-name="colon" unicode=":" horiz-adv-x="222" 
d="M51 505h120v-132h-120v132zM171 132v-132h-120v132h120z" />
    <glyph glyph-name="semicolon" unicode=";" horiz-adv-x="222" 
d="M12 -97l41 229h131l-76 -229h-96zM171 375h-120v130h120v-130z" />
    <glyph glyph-name="less" unicode="&#x3c;" 
d="M162 249l297 -162v-111l-417 225v99l417 227v-111z" />
    <glyph glyph-name="equal" unicode="=" 
d="M475 406v-111h-450v111h450zM475 210v-111h-450v111h450z" />
    <glyph glyph-name="greater" unicode="&#x3e;" 
d="M41 87l297 162l-297 167v111l417 -227v-99l-417 -225v111z" />
    <glyph glyph-name="question" unicode="?" horiz-adv-x="444" 
d="M265 193h-103v103q0 44 54 132q19 31 27 46t17 40.5t9 45.5q0 72 -58 72q-19 0 -31 -8.5t-16.5 -27t-5.5 -31t-1 -36.5h-120q0 23 0.5 34t3.5 37t9.5 40.5t20.5 34.5t33.5 31t50.5 19.5t70 8.5q80 0 131 -42.5t51 -120.5q0 -94 -71 -179q-5 -6 -20 -24.5t-20.5 -26
t-14.5 -22t-12.5 -27.5t-3.5 -27v-72zM275 0h-120v120h120v-120z" />
    <glyph glyph-name="at" unicode="@" horiz-adv-x="795" 
d="M420 483q-44 0 -71.5 -47.5t-27.5 -116.5q0 -37 14 -62.5t43 -25.5q107 0 107 175q0 35 -17.5 56t-47.5 21zM611 540l-35 -195q-16 -86 -16 -98q0 -16 19 -16q37 0 69.5 54.5t33.5 121.5q1 48 -10 87t-29 65t-43 46t-49.5 31t-52 17.5t-46.5 8.5t-36 2
q-126 0 -214.5 -88.5t-88.5 -213.5q0 -126 88.5 -215t214.5 -89q60 0 117 24.5t95 63.5h91q-49 -73 -130.5 -115.5t-172.5 -42.5q-155 0 -264 109.5t-109 264.5t109 263.5t264 108.5q73 0 132.5 -21t96 -53.5t62 -74t35.5 -79.5t10 -72q0 -116 -66 -199t-153 -83
q-23 0 -43 15t-25 41l-2 2q-45 -58 -116 -58q-63 0 -94.5 53.5t-31.5 120.5q0 93 49.5 160t137.5 67q75 0 99 -58h2l9 45h93z" />
    <glyph glyph-name="A" unicode="A" horiz-adv-x="611" 
d="M157 0h-149l200 722h199l196 -722h-159l-40 160h-206zM372 271l-73 312h-2l-69 -312h144z" />
    <glyph glyph-name="B" unicode="B" horiz-adv-x="611" 
d="M216 316v-205h84q14 0 23.5 1t26.5 6t27.5 15t18.5 30.5t8 49.5q0 51 -23 77t-77 26h-88zM216 611v-184h101q30 0 54.5 22t24.5 70q0 40 -24.5 66t-62.5 26h-93zM332 0h-267v722h268q47 0 82 -8t65.5 -27.5t46.5 -57.5t16 -94q0 -64 -31.5 -105.5t-91.5 -53.5v-2
q76 -11 105.5 -56.5t29.5 -126.5q0 -191 -223 -191z" />
    <glyph glyph-name="C" unicode="C" horiz-adv-x="556" 
d="M305 -12q-72 0 -121.5 23t-74 51.5t-37 87.5t-14.5 97.5t-2 113.5q0 76 2 114.5t14.5 97t37 87.5t74 51.5t121.5 22.5q113 0 164 -60.5t46 -179.5h-148q0 72 -14 102t-48 30q-60 0 -78 -57.5t-18 -207.5t18 -207.5t78 -57.5q23 0 37.5 12.5t20.5 33.5t8 42.5t3 45.5v13
h149q0 -140 -53.5 -197.5t-164.5 -57.5z" />
    <glyph glyph-name="D" unicode="D" horiz-adv-x="611" 
d="M217 611v-500h73q67 0 88.5 54t21.5 196q0 38 -0.5 56.5t-2 50.5t-5.5 48t-11.5 37.5t-18.5 32t-28 18t-39 7.5h-78zM66 0v722h252q73 0 120 -23t72 -72.5t34 -110t9 -151.5q0 -119 -9 -167q-36 -198 -232 -198h-246z" />
    <glyph glyph-name="E" unicode="E" 
d="M465 0h-402v722h394v-111h-243v-178h224v-111h-224v-211h251v-111z" />
    <glyph glyph-name="F" unicode="F" horiz-adv-x="444" 
d="M211 0h-151v722h375v-111h-224v-185h214v-111h-214v-315z" />
    <glyph glyph-name="G" unicode="G" horiz-adv-x="611" 
d="M543 500h-150q0 22 -1.5 39t-7 34t-15 28t-26.5 18t-40 7q-17 0 -31 -5t-23.5 -17.5t-16.5 -24.5t-11.5 -34.5t-7 -38.5t-3.5 -46.5t-1 -48v-52.5q0 -115 9.5 -170.5t31.5 -75.5t67 -20q35 0 75 14v160h-82v111h233v-366q-123 -24 -204 -24q-64 0 -109.5 8.5t-77 29.5
t-50.5 48t-29 73.5t-13.5 95.5t-3.5 124q0 48 1 78.5t6.5 73t15.5 70t28.5 57.5t45.5 47.5t67 29t92 11.5q113 0 175.5 -61t55.5 -173z" />
    <glyph glyph-name="H" unicode="H" horiz-adv-x="611" 
d="M219 433h173v289h151v-722h-151v322h-173v-322h-151v722h151v-289z" />
    <glyph glyph-name="I" unicode="I" horiz-adv-x="278" 
d="M214 0h-151v722h151v-722z" />
    <glyph glyph-name="J" unicode="J" 
d="M293 722h151v-554q0 -89 -60.5 -134.5t-148.5 -45.5q-52 0 -89.5 6.5t-61.5 23t-38 34t-21 51t-8.5 61.5t-1.5 76h154q0 -6 -0.5 -25.5t0 -29t1.5 -26t5.5 -25.5t11.5 -19t19.5 -14.5t28.5 -4.5q25 0 41.5 19t16.5 43v564z" />
    <glyph glyph-name="K" unicode="K" horiz-adv-x="556" 
d="M207 413l177 309h166l-202 -324l202 -398h-170l-173 370h-2v-370h-151v722h151v-309h2z" />
    <glyph glyph-name="L" unicode="L" horiz-adv-x="444" 
d="M441 0h-377v722h151v-602h226v-120z" />
    <glyph glyph-name="M" unicode="M" horiz-adv-x="833" 
d="M207 0h-147v722h243l113 -491h2l120 491h235v-722h-147v557h-2l-139 -557h-144l-132 557h-2v-557z" />
    <glyph glyph-name="N" unicode="N" horiz-adv-x="667" 
d="M205 0h-141v722h204l192 -500h2v500h141v-722h-199l-197 528h-2v-528z" />
    <glyph glyph-name="O" unicode="O" horiz-adv-x="611" 
d="M305 96q60 0 78 57.5t18 207.5t-18 207.5t-78 57.5t-78 -57.5t-18 -207.5t18 -207.5t78 -57.5zM305 -12q-72 0 -121.5 23t-74 51.5t-37 87.5t-14.5 97.5t-2 113.5q0 76 2 114.5t14.5 97t37 87.5t74 51.5t121.5 22.5t121.5 -22.5t74 -51.5t37 -87.5t14.5 -97t2 -114.5
q0 -75 -2 -113.5t-14.5 -97.5t-37 -87.5t-74 -51.5t-121.5 -23z" />
    <glyph glyph-name="P" unicode="P" horiz-adv-x="556" 
d="M215 611v-206h84q33 0 54.5 29.5t21.5 67.5q0 109 -84 109h-76zM64 0v722h272q192 0 192 -216q0 -29 -3.5 -54t-16.5 -55.5t-33.5 -52t-58.5 -36t-89 -14.5h-112v-294h-151z" />
    <glyph glyph-name="Q" unicode="Q" horiz-adv-x="611" 
d="M607 111v-111h-213q-13 0 -43 -3.5t-44 -3.5q-66 0 -111.5 15t-73 41t-42.5 74.5t-19.5 101.5t-4.5 136q0 76 2 114.5t14.5 97t37 87.5t74 51.5t121.5 22.5t121.5 -22.5t74 -51.5t37 -87.5t14.5 -97t2 -114.5q0 -113 -20.5 -173.5t-67.5 -99.5l2 -2q7 2 37 13.5t39 11.5
h63zM305 101q60 0 78 57t18 203q0 150 -18 207.5t-78 57.5t-78 -57.5t-18 -207.5q0 -146 18 -203t78 -57z" />
    <glyph glyph-name="R" unicode="R" horiz-adv-x="556" 
d="M211 611v-201h67q41 0 59 32t18 74q0 95 -77 95h-67zM211 299v-299h-151v722h279q79 0 124 -49t45 -140q0 -155 -134 -177v-2q18 -2 27.5 -3.5t32 -10.5t35.5 -22.5t24.5 -41t11.5 -64.5q0 -176 17 -212h-148q-6 13 -9.5 25.5t-5 30.5t-2 25.5t0 31.5t0.5 27q0 81 -8 104
q-18 55 -100 55h-39z" />
    <glyph glyph-name="S" unicode="S" horiz-adv-x="556" 
d="M511 197q0 -67 -22 -111t-62.5 -64t-78.5 -27t-89 -7q-67 0 -113 18.5t-67.5 53t-29 73.5t-4.5 90h151q0 -25 1 -40t5.5 -34t13.5 -29t25.5 -17t40.5 -7q37 0 56.5 22t19.5 60q0 35 -31.5 65t-76 54.5t-89 53t-76 74.5t-31.5 106q0 203 238 203q112 0 164.5 -52.5
t45.5 -164.5h-147q0 50 -14.5 79.5t-55.5 29.5q-37 0 -57.5 -20t-20.5 -57t31.5 -66.5t76 -52.5t89 -50t76 -73.5t31.5 -109.5z" />
    <glyph glyph-name="T" unicode="T" 
d="M6 722h487v-120h-168v-602h-151v602h-168v120z" />
    <glyph glyph-name="U" unicode="U" horiz-adv-x="611" 
d="M400 722h151v-512q0 -93 -59 -157.5t-186 -64.5q-122 0 -184 58.5t-62 163.5v512h151v-502q0 -124 93 -124q96 0 96 124v502z" />
    <glyph glyph-name="V" unicode="V" horiz-adv-x="556" 
d="M183 0l-178 722h157l112 -525h2l126 525h149l-191 -722h-177z" />
    <glyph glyph-name="W" unicode="W" horiz-adv-x="889" 
d="M159 0l-160 722h155l94 -507h2l114 507h178l108 -507h2l90 507h148l-160 -722h-167l-113 528h-2l-125 -528h-164z" />
    <glyph glyph-name="X" unicode="X" horiz-adv-x="556" 
d="M190 378l-174 344h172l103 -237l101 237h157l-180 -357l183 -365h-171l-111 249l-111 -249h-156z" />
    <glyph glyph-name="Y" unicode="Y" horiz-adv-x="556" 
d="M196 0v250l-189 472h165l108 -305l115 305h154l-202 -472v-250h-151z" />
    <glyph glyph-name="Z" unicode="Z" 
d="M36 611v111h435v-131l-304 -480h311v-111h-456v132l303 479h-289z" />
    <glyph glyph-name="bracketleft" unicode="[" horiz-adv-x="278" 
d="M44 -121v876h212v-87h-101v-702h101v-87h-212z" />
    <glyph glyph-name="backslash" unicode="\" horiz-adv-x="250" 
d="M-83 722h107l308 -722h-107z" />
    <glyph glyph-name="bracketright" unicode="]" horiz-adv-x="278" 
d="M234 755v-876h-212v87h101v702h-101v87h212z" />
    <glyph glyph-name="asciicircum" unicode="^" 
d="M129 274h-126l182 424h130l182 -424h-126l-121 299z" />
    <glyph glyph-name="underscore" unicode="_" 
d="M500 -124h-500v56h500v-56z" />
    <glyph glyph-name="grave" unicode="`" horiz-adv-x="278" 
d="M0 722h135l90 -143h-65z" />
    <glyph glyph-name="a" unicode="a" 
d="M301 244q-4 0 -20 -0.5t-20 -1t-17 -1.5t-16.5 -3t-13 -5t-13 -7.5t-9 -11t-7.5 -14.5t-4 -19t-2 -24q0 -80 52 -80q17 0 30 6t20.5 18.5t12 23.5t6 31t2 30.5t0 31.5t-0.5 26zM439 346v-252q0 -22 7 -94h-131l-6 67h-2q-44 -77 -132 -77q-69 0 -101.5 44.5t-32.5 116.5
q0 48 15.5 82t37.5 51.5t60 26.5t68.5 11t78.5 1v39q0 38 -11 56t-46 18q-33 0 -43 -20t-10 -57h-138q0 87 52 123q44 33 132 33q65 0 107 -12.5t61.5 -38t26.5 -52.5t7 -66z" />
    <glyph glyph-name="b" unicode="b" 
d="M254 77q37 0 48.5 39.5t11.5 140.5q0 109 -12 138q-15 32 -48 33q-14 0 -24 -4.5t-16 -17t-9.5 -23.5t-5 -35t-2 -39t-0.5 -47v-5q0 -101 11.5 -140.5t45.5 -39.5zM56 0v722h141v-265h2q39 58 115 58q29 0 52 -10t37.5 -22.5t24.5 -38.5t14.5 -42t7 -51t2.5 -47.5v-47.5
v-10q0 -31 -0.5 -48t-3 -48t-7.5 -49.5t-15 -42t-25 -36.5t-38 -22.5t-52 -9.5q-84 0 -119 66h-2v-56h-134z" />
    <glyph glyph-name="c" unicode="c" 
d="M454 325h-141q0 55 -14.5 77.5t-48.5 22.5q-42 0 -53.5 -35t-11.5 -123q0 -115 13 -151t52 -36q65 0 65 106h141q0 -196 -206 -196q-53 0 -91 13.5t-60 35t-34.5 58t-16.5 73t-4 89.5q0 60 6.5 99.5t26.5 78.5t63 58.5t110 19.5q204 0 204 -190z" />
    <glyph glyph-name="d" unicode="d" 
d="M244 77q34 0 45.5 39.5t11.5 140.5v5q0 32 -0.5 47t-2 39t-5 35t-9.5 23.5t-16 17t-24 4.5q-15 0 -25.5 -4.5t-17 -17t-10 -23.5t-5 -35t-2 -39t-0.5 -47v-5q0 -101 11.5 -140.5t48.5 -39.5zM442 0h-134v56h-2q-35 -66 -119 -66q-29 0 -52 9.5t-38 22.5t-25 37t-15 42
t-7.5 49.5t-3 48t-0.5 47.5v10v47.5t2.5 47.5t7 51t14.5 42t24.5 38.5t37.5 22.5t52 10q76 0 115 -58h2v265h141v-722z" />
    <glyph glyph-name="e" unicode="e" 
d="M186 309h129v32.5t-3.5 30t-9.5 30t-19.5 18t-32.5 8.5q-23 0 -37 -11t-19.5 -33.5t-6.5 -36.5t-1 -38zM456 230h-270q0 -30 1.5 -50t7 -46.5t19.5 -40t36 -13.5q60 0 60 90h143q-3 -85 -54 -131q-52 -49 -149 -49q-53 0 -91 13.5t-60 35t-34.5 58t-16.5 73t-4 89.5
q0 60 6.5 99.5t26.5 78.5t63 58.5t110 19.5q55 0 94.5 -14.5t61.5 -38.5t34 -62.5t15 -77t1 -92.5z" />
    <glyph glyph-name="f" unicode="f" horiz-adv-x="278" 
d="M273 725v-90q-41 3 -55 -13t-14 -56v-61h66v-87h-66v-418h-141v418h-63v87h64q0 44 -0.5 79t6.5 62t22.5 45t47.5 27t83 9q16 0 50 -2z" />
    <glyph glyph-name="g" unicode="g" 
d="M182 237v-17v-20.5t0.5 -20t2.5 -21.5t4.5 -19t7.5 -18.5t11 -13.5t15 -10t20 -3q36 0 47 36t11 124q0 94 -10.5 134t-46.5 40q-39 0 -50.5 -36.5t-11.5 -154.5zM308 505h134v-526q0 -19 -1 -32.5t-11 -42.5t-28.5 -48t-57.5 -34.5t-94 -15.5q-90 0 -143 32.5t-55 117.5
h138q0 -35 12 -51q14 -20 47 -20q52 0 52 84v97h-2q-32 -59 -107 -59q-31 0 -55 8.5t-39.5 19.5t-26 33t-16 38t-8 47t-3 47t-0.5 49v14q0 36 1 58t5 56t13.5 54.5t25.5 42t42.5 31.5t61.5 10q84 0 113 -69h2v59z" />
    <glyph glyph-name="h" unicode="h" 
d="M444 0h-141v348q0 39 -11 59.5t-42 20.5t-42 -20.5t-11 -59.5v-348h-141v722h141v-268h2q38 61 119 61q53 0 89.5 -29.5t36.5 -80.5v-405z" />
    <glyph glyph-name="i" unicode="i" horiz-adv-x="278" 
d="M209 505v-505h-141v505h141zM68 722h141v-111h-141v111z" />
    <glyph glyph-name="j" unicode="j" horiz-adv-x="278" 
d="M68 505h141v-551q0 -77 -32.5 -111t-98.5 -34q-23 0 -47 3v89q10 0 17 2t13.5 11t6.5 26v565zM68 722h141v-111h-141v111z" />
    <glyph glyph-name="k" unicode="k" 
d="M194 0h-141v722h141v-430h2l127 213h147l-143 -225l159 -280h-159l-131 275h-2v-275z" />
    <glyph glyph-name="l" unicode="l" horiz-adv-x="278" 
d="M68 722h141v-722h-141v722z" />
    <glyph glyph-name="m" unicode="m" horiz-adv-x="722" 
d="M186 505v-51h2q38 61 119 61q76 0 113 -64q48 64 131 64q53 0 89.5 -29.5t36.5 -80.5v-405h-141v348q0 39 -11 59.5t-42 20.5t-42 -20.5t-11 -59.5v-348h-138v348q0 39 -11 59.5t-42 20.5t-42 -20.5t-11 -59.5v-348h-141v505h141z" />
    <glyph glyph-name="n" unicode="n" 
d="M197 505v-51h2q38 61 119 61q53 0 89.5 -29.5t36.5 -80.5v-405h-141v348q0 39 -11 59.5t-42 20.5t-42 -20.5t-11 -59.5v-348h-141v505h141z" />
    <glyph glyph-name="o" unicode="o" 
d="M250 80q39 0 52 36t13 151q0 88 -11.5 123t-53.5 35t-53.5 -35t-11.5 -123q0 -115 13 -151t52 -36zM250 -10q-53 0 -91 13.5t-60 35t-34.5 58t-16.5 73t-4 89.5q0 60 6.5 99.5t26.5 78.5t63 58.5t110 19.5t110 -19.5t63 -58.5t26.5 -78.5t6.5 -99.5q0 -53 -4 -89.5
t-16.5 -73t-34.5 -58t-60 -35t-91 -13.5z" />
    <glyph glyph-name="p" unicode="p" 
d="M254 77q37 0 48.5 39.5t11.5 140.5q0 109 -12 138q-15 32 -48 33q-14 0 -24 -4.5t-16 -17t-9.5 -23.5t-5 -35t-2 -39t-0.5 -47v-5q0 -101 11.5 -140.5t45.5 -39.5zM56 505h134v-56h2q35 66 119 66q29 0 52 -9.5t38 -22.5t25 -37t15 -42t7.5 -49.5t3 -48t0.5 -47.5v-10
v-47.5t-2.5 -47.5t-7 -51t-14.5 -42t-24.5 -38.5t-37.5 -22.5t-52 -10q-76 0 -115 58h-2v-265h-141v722z" />
    <glyph glyph-name="q" unicode="q" 
d="M246 77q34 0 45.5 39.5t11.5 140.5v5q0 32 -0.5 47t-2 39t-5 35t-9.5 23.5t-16 17t-24 4.5q-15 0 -25.5 -4.5t-17 -17t-10 -23.5t-5 -35t-2 -39t-0.5 -47v-5q0 -101 11.5 -140.5t48.5 -39.5zM444 505v-722h-141v265h-2q-39 -58 -115 -58q-29 0 -52 10t-37.5 22.5
t-24.5 38.5t-14.5 42t-7 51t-2.5 47.5v47.5v10q0 31 0.5 48t3 48t7.5 49.5t15 42t25 36.5t38 22.5t52 9.5q84 0 119 -66h2v56h134z" />
    <glyph glyph-name="r" unicode="r" horiz-adv-x="333" 
d="M56 505h134v-65h2q34 75 131 75v-126q-36 2 -61 -4.5t-37.5 -17t-19 -29t-7.5 -31t-1 -32.5v-275h-141v505z" />
    <glyph glyph-name="s" unicode="s" horiz-adv-x="444" 
d="M28 162h138q-2 -41 7 -61q12 -24 51 -24q22 0 37 14t15 38q0 29 -25.5 50.5t-62 36t-73 32t-62 49t-25.5 76.5q0 51 32 84.5t74.5 45.5t92.5 12q79 0 130 -39t45 -116h-138q0 52 -14 65q-11 11 -36 11q-48 0 -48 -54q0 -22 25.5 -39.5t62 -33t73 -34.5t62 -52.5
t25.5 -78.5q0 -67 -51.5 -110.5t-137.5 -43.5q-102 0 -152.5 36.5t-44.5 135.5z" />
    <glyph glyph-name="t" unicode="t" horiz-adv-x="278" 
d="M-1 418v87h57v80l141 63v-143h73v-87h-73v-270q0 -25 1.5 -35t11.5 -19t32 -9q18 0 25 2v-87q-47 -5 -73 -5q-43 0 -72.5 12.5t-42.5 32.5t-18 36t-5 31v311h-57z" />
    <glyph glyph-name="u" unicode="u" 
d="M303 0v51h-2q-38 -61 -119 -61q-53 0 -89.5 29.5t-36.5 80.5v405h141v-350q0 -38 11 -58t42 -20t42 20t11 58v350h141v-405q0 -45 5 -100h-146z" />
    <glyph glyph-name="v" unicode="v" horiz-adv-x="444" 
d="M142 0l-134 505h143l71 -379h2l74 379h138l-139 -505h-155z" />
    <glyph glyph-name="w" unicode="w" horiz-adv-x="778" 
d="M137 0l-126 505h140l69 -380h2l97 380h146l89 -380h2l76 380h135l-137 -505h-148l-91 345h-2l-102 -345h-150z" />
    <glyph glyph-name="x" unicode="x" 
d="M238 177l-93 -177h-140l149 265l-137 240h158l74 -153l85 153h141l-135 -242l145 -263h-159z" />
    <glyph glyph-name="y" unicode="y" horiz-adv-x="444" 
d="M92 -191l54 187l-137 509h140l72 -355h2l76 355h136l-195 -696h-148z" />
    <glyph glyph-name="z" unicode="z" horiz-adv-x="389" 
d="M363 505v-100l-201 -315h204v-90h-343v100l198 315h-191v90h333z" />
    <glyph glyph-name="braceleft" unicode="{" horiz-adv-x="274" 
d="M50 471v154q0 67 26.5 98.5t89.5 31.5h74v-79q-79 0 -79 -110v-112q0 -57 -17 -86t-65 -40v-2q48 -7 65 -42.5t17 -92.5v-124q0 -109 79 -109v-79h-65q-73 0 -99 34.5t-26 113.5v156q0 100 -82 100v87q44 0 63 28.5t19 72.5z" />
    <glyph glyph-name="bar" unicode="|" horiz-adv-x="250" 
d="M69 0v722h111v-722h-111z" />
    <glyph glyph-name="braceright" unicode="}" horiz-adv-x="274" 
d="M229 625v-154q0 -44 19 -72.5t63 -28.5v-87q-82 0 -82 -100v-156q0 -79 -26 -113.5t-99 -34.5h-65v79q79 0 79 109v124q0 57 17 92.5t65 42.5v2q-48 11 -65 40t-17 86v112q0 110 -79 110v79h74q63 0 89.5 -31.5t26.5 -98.5z" />
    <glyph glyph-name="asciitilde" unicode="~" 
d="M418 356l57 -73q-39 -69 -62 -89q-30 -28 -67 -28q-34 0 -104 33t-82 33q-10 0 -19 -4t-15 -9t-13.5 -16t-10.5 -16.5t-10 -19.5t-9 -17l-58 74q28 56 59.5 90t74.5 34q35 0 102 -33t85 -33q11 0 20 4t17 14t12.5 16.5t12 21t10.5 18.5z" />
    <glyph glyph-name="uni00A0" unicode="&#xa0;" 
 />
    <glyph glyph-name="sterling" unicode="&#xa3;" horiz-adv-x="444" 
d="M318 332h-119v-230h220v-102h-417v102h56v230h-58v102h58v87q0 186 183 186q97 0 140.5 -45t42.5 -136h-118q1 32 -12 55.5t-40 23.5q-55 0 -55 -78v-93h119v-102z" />
    <glyph glyph-name="currency" unicode="&#xa4;" horiz-adv-x="444" 
d="M-20 137l42 44q-35 65 -35 128q0 69 35 129l-42 42l76 80l42 -43q62 38 123 38q67 0 127 -38l43 43l72 -80l-41 -42q36 -60 36 -128q0 -76 -36 -129l41 -44l-72 -79l-43 43q-63 -38 -123 -38q-69 0 -127 38l-42 -43zM223 447q-51 0 -84.5 -42.5t-33.5 -94.5t33.5 -95.5
t84.5 -43.5t84 43.5t33 95.5t-33 94.5t-84 42.5z" />
    <glyph glyph-name="section" unicode="&#xa7;" horiz-adv-x="444" 
d="M229 291q22 13 32 19.5t22.5 22.5t12.5 33q0 28 -20.5 42.5t-56.5 26.5q-72 -27 -72 -68q0 -46 82 -76zM391 703v-112q-93 41 -144 41q-24 0 -41 -10t-17 -32q0 -21 23.5 -36.5t56.5 -27.5t66.5 -28t57 -46.5t23.5 -73.5q0 -78 -88 -129q78 -37 78 -113q0 -43 -19 -73
t-51.5 -46t-67.5 -22.5t-75 -6.5q-82 0 -156 29v117q101 -44 154 -44q64 0 64 49q0 21 -23.5 35.5t-57 26t-67 26.5t-57 45.5t-23.5 74.5q0 41 27 74.5t68 53.5q-40 23 -57 50.5t-17 71.5q0 60 48.5 98.5t140.5 38.5q65 0 154 -31z" />
    <glyph glyph-name="copyright" unicode="&#xa9;" horiz-adv-x="830" 
d="M416 734q155 0 263 -108.5t108 -263.5t-108.5 -264.5t-262.5 -109.5q-155 0 -264 109.5t-109 264.5t109 263.5t264 108.5zM416 58q124 0 212.5 89.5t88.5 214.5t-88.5 213.5t-212.5 88.5q-126 0 -214.5 -88.5t-88.5 -213.5q0 -126 88.5 -215t214.5 -89zM416 138
q-47 0 -78.5 13.5t-47.5 31t-24.5 53t-9.5 58.5t-1 68q0 32 0.5 48.5t3.5 44.5t8.5 43t17.5 34.5t29 29t42.5 16.5t59.5 7q144 0 138 -144h-98q0 43 -11 60.5t-38 17.5q-33 0 -43.5 -35.5t-10.5 -116.5q0 -102 10.5 -132.5t45.5 -30.5q23 0 34.5 14.5t13.5 29t3 37.5v6h98
q0 -84 -35 -118.5t-107 -34.5z" />
    <glyph glyph-name="guillemotleft" unicode="&#xab;" horiz-adv-x="444" 
d="M120 75l-91 197l92 192h116l-88 -192l86 -197h-115zM298 75l-91 197l92 192h116l-88 -192l86 -197h-115z" />
    <glyph glyph-name="logicalnot" unicode="&#xac;" 
d="M364 105v190h-339v111h450v-301h-111z" />
    <glyph glyph-name="registered" unicode="&#xae;" horiz-adv-x="830" 
d="M416 734q155 0 263 -108.5t108 -263.5t-108.5 -264.5t-262.5 -109.5q-155 0 -264 109.5t-109 264.5t109 263.5t264 108.5zM416 58q124 0 212.5 89.5t88.5 214.5t-88.5 213.5t-212.5 88.5q-126 0 -214.5 -88.5t-88.5 -213.5q0 -126 88.5 -215t214.5 -89zM369 326v-179h-98
v433h181q51 0 80.5 -29.5t29.5 -84.5q0 -92 -87 -106v-2q85 -4 85 -84q0 -105 11 -127h-96q-13 26 -13 84v16.5v16.5t-0.5 14t-2.5 13.5t-5 11t-8.5 10.5t-12.5 6.5t-17 5t-22 1.5h-25zM369 508v-121h44q27 0 39 19.5t12 44.5q0 57 -51 57h-44z" />
    <glyph glyph-name="degree" unicode="&#xb0;" horiz-adv-x="400" 
d="M350 557q0 -62 -44 -106t-106 -44t-106 44t-44 106q-1 61 43.5 105.5t106.5 44.5t106 -44.5t44 -105.5zM129 557q0 -30 21 -50.5t51 -20.5q29 0 49.5 20.5t20.5 50.5q0 29 -20.5 50t-50.5 21q-29 0 -50.5 -21t-20.5 -50z" />
    <glyph glyph-name="plusminus" unicode="&#xb1;" 
d="M195 382v133h111v-133h169v-111h-169v-133h-111v133h-170v111h170zM25 -12v111h450v-111h-450z" />
    <glyph glyph-name="mu" unicode="&#xb5;" 
d="M303 0v51h-2q-36 -59 -104 -61v-181h-141v696h141v-350q0 -38 11 -58t42 -20t42 20t11 58v350h141v-505h-141z" />
    <glyph glyph-name="mu" unicode="&#x3bc;" 
d="M303 0v51h-2q-36 -59 -104 -61v-181h-141v696h141v-350q0 -38 11 -58t42 -20t42 20t11 58v350h141v-505h-141z" />
    <glyph glyph-name="paragraph" unicode="&#xb6;" horiz-adv-x="550" 
d="M365 -96v698h-68v-698h-120v469q-76 0 -116.5 47t-40.5 124q0 97 50.5 137.5t149.5 40.5h309v-120h-44v-698h-120zM177 -96h120h-120z" />
    <glyph glyph-name="guillemotright" unicode="&#xbb;" horiz-adv-x="444" 
d="M324 464l91 -197l-92 -192h-116l88 192l-86 197h115zM146 464l91 -197l-92 -192h-116l88 192l-86 197h115z" />
    <glyph glyph-name="divide" unicode="&#xf7;" 
d="M25 197v111h450v-111h-450zM314 385h-128v120h128v-120zM314 0h-128v120h128v-120z" />
    <glyph glyph-name="florin" unicode="&#x192;" horiz-adv-x="444" 
d="M149 366h-66l15 87h67q17 111 25 137q26 86 103 108q32 9 75 9q26 0 59 -3l-19 -106q-14 7 -28 7q-30 0 -44 -26.5t-19 -71.5t-8 -54h81l-14 -87h-80l-56 -370q-25 -163 -180 -163q-46 0 -61 4l17 101q7 -3 16 -3q31 0 44.5 20.5t18.5 56.5z" />
    <glyph glyph-name="Delta" unicode="&#x394;" horiz-adv-x="691" 
d="M684 -5h-679l362 776zM485 94l-157 380l-177 -380h334z" />
    <glyph glyph-name="Delta" unicode="&#x2206;" horiz-adv-x="691" 
d="M684 -5h-679l362 776zM485 94l-157 380l-177 -380h334z" />
    <glyph glyph-name="afii10023" unicode="&#x401;" 
d="M394 807h-111v108h111v-108zM217 807h-111v108h111v-108zM465 0h-402v722h394v-111h-243v-178h224v-111h-224v-211h251v-111zM-2258 0z" />
    <glyph glyph-name="afii10051" unicode="&#x402;" horiz-adv-x="611" 
d="M305 317v-317h-151v602h-148v120h447v-120h-148v-175h54q42 0 73.5 -4t64 -17.5t53 -36.5t34 -63t13.5 -95q0 -44 -9 -78.5t-21.5 -56.5t-33.5 -37.5t-37.5 -22.5t-42 -11t-38 -4.5t-34.5 -0.5h-7h-33l1 111q15 0 24 0.5t26 6t27 15t18.5 30.5t8.5 50q0 52 -22.5 78
t-77.5 26h-41z" />
    <glyph glyph-name="afii10052" unicode="&#x403;" horiz-adv-x="444" 
d="M211 0h-151v722h375v-111h-224v-611zM254 939h135l-160 -143h-65z" />
    <glyph glyph-name="afii10053" unicode="&#x404;" horiz-adv-x="556" 
d="M523 243q0 -140 -53.5 -197.5t-164.5 -57.5q-72 0 -121.5 23t-74 51.5t-37 87.5t-14.5 97.5t-2 113.5q0 76 2 114.5t14.5 97t37 87.5t74 51.5t121.5 22.5q113 0 164 -60.5t46 -179.5h-148q0 72 -14 102t-48 30q-53 0 -72.5 -43.5t-22.5 -149.5h155v-111h-156
q2 -125 20.5 -175.5t75.5 -50.5q23 0 37.5 12.5t20.5 33.5t8 42.5t3 45.5v13h149z" />
    <glyph glyph-name="afii10054" unicode="&#x405;" horiz-adv-x="556" 
d="M511 197q0 -67 -22 -111t-62.5 -64t-78.5 -27t-89 -7q-67 0 -113 18.5t-67.5 53t-29 73.5t-4.5 90h151q0 -25 1 -40t5.5 -34t13.5 -29t25.5 -17t40.5 -7q37 0 56.5 22t19.5 60q0 35 -31.5 65t-76 54.5t-89 53t-76 74.5t-31.5 106q0 203 238 203q112 0 164.5 -52.5
t45.5 -164.5h-147q0 50 -14.5 79.5t-55.5 29.5q-37 0 -57.5 -20t-20.5 -57t31.5 -66.5t76 -52.5t89 -50t76 -73.5t31.5 -109.5z" />
    <glyph glyph-name="afii10055" unicode="&#x406;" horiz-adv-x="278" 
d="M214 0h-151v722h151v-722zM193 807h-111v108h111v-108z" />
    <glyph glyph-name="afii10056" unicode="&#x407;" horiz-adv-x="278" 
d="M214 0h-151v722h151v-722zM282 807h-111v108h111v-108zM105 807h-111v108h111v-108z" />
    <glyph glyph-name="afii10057" unicode="&#x408;" 
d="M293 722h151v-554q0 -89 -60.5 -134.5t-148.5 -45.5q-52 0 -89.5 6.5t-61.5 23t-38 34t-21 51t-8.5 61.5t-1.5 76h154q0 -6 -0.5 -25.5t0 -29t1.5 -26t5.5 -25.5t11.5 -19t19.5 -14.5t28.5 -4.5q25 0 41.5 19t16.5 43v564z" />
    <glyph glyph-name="afii10058" unicode="&#x409;" horiz-adv-x="865" 
d="M841 216q0 -216 -192 -216h-257v611h-118v-175q0 -192 -19.5 -267t-80.5 -138q-20 -21 -49.5 -31t-51.5 -10q-45 0 -69 19v123q10 -8 31 -8q26 0 41 21q35 48 41 104.5t6 270.5v202h420v-294h97q51 0 89 -14.5t58.5 -36t33.5 -52t16.5 -55.5t3.5 -54zM688 220
q0 38 -21.5 67.5t-54.5 29.5h-69v-206h61q84 0 84 109z" />
    <glyph glyph-name="afii10059" unicode="&#x40a;" horiz-adv-x="865" 
d="M841 216q0 -216 -192 -216h-257v322h-173v-322h-151v722h151v-289h173v289h151v-294h97q51 0 89 -14.5t58.5 -36t33.5 -52t16.5 -55.5t3.5 -54zM688 220q0 38 -21.5 67.5t-54.5 29.5h-69v-206h61q84 0 84 109z" />
    <glyph glyph-name="afii10060" unicode="&#x40b;" horiz-adv-x="621" 
d="M305 317v-317h-151v602h-148v120h447v-120h-148v-175h54q42 0 73.5 -4t64 -17.5t53 -36.5t34 -63t13.5 -95v-211h-151v213q0 52 -22.5 78t-77.5 26h-41z" />
    <glyph glyph-name="afii10061" unicode="&#x40c;" horiz-adv-x="556" 
d="M207 413l177 309h166l-202 -324l202 -398h-170l-173 370h-2v-370h-151v722h151v-309h2zM304 939h135l-160 -143h-65z" />
    <glyph glyph-name="afii10062" unicode="&#x40e;" horiz-adv-x="556" 
d="M551 722l-182 -548q-62 -186 -192 -186q-33 0 -73 22v109q16 -16 50 -16q16 0 31.5 9.5t20.5 17.5q16 25 5 55l-206 537h157l118 -347l9 -50l8 50l105 347h149zM128 915h75q7 -50 85 -50t85 50h75q-4 -60 -47.5 -95t-112.5 -35t-112.5 35t-47.5 95z" />
    <glyph glyph-name="afii10145" unicode="&#x40f;" horiz-adv-x="611" 
d="M543 0h-163v-181h-151v181h-161v722h151v-611h173v611h151v-722z" />
    <glyph glyph-name="afii10017" unicode="&#x410;" horiz-adv-x="556" 
d="M196 160l-34 -160h-157l178 722h177l191 -722h-149l-38 160h-168zM337 271l-61 254h-2l-54 -254h117z" />
    <glyph glyph-name="afii10018" unicode="&#x411;" horiz-adv-x="556" 
d="M216 317v-206h56q15 0 24 0.5t26 6t27 15t18.5 30.5t8.5 50q0 52 -22.5 78t-77.5 26h-60zM527 211q0 -44 -9 -78.5t-21.5 -56.5t-33.5 -37.5t-37.5 -22.5t-42 -11t-38 -4.5t-34.5 -0.5h-7h-239v722h395v-111h-244v-184h73q42 0 73.5 -4t64 -17.5t53 -36.5t34 -63
t13.5 -95z" />
    <glyph glyph-name="afii10019" unicode="&#x412;" horiz-adv-x="600" 
d="M216 316v-205h73q14 0 23.5 1t26.5 6t27.5 15t18.5 30.5t8 49.5q0 51 -23 77t-77 26h-77zM216 611v-184h90q30 0 54.5 22t24.5 70q0 40 -24.5 66t-62.5 26h-82zM321 0h-256v722h257q47 0 82 -8t65.5 -27.5t46.5 -57.5t16 -94q0 -64 -31.5 -105.5t-91.5 -53.5v-2
q76 -11 105.5 -56.5t29.5 -126.5q0 -191 -223 -191z" />
    <glyph glyph-name="afii10020" unicode="&#x413;" horiz-adv-x="444" 
d="M211 0h-151v722h375v-111h-224v-611z" />
    <glyph glyph-name="afii10021" unicode="&#x414;" horiz-adv-x="641" 
d="M143 722h435v-611h47v-272h-151v161h-307v-161h-151v272h47q33 67 54 171q26 124 26 440zM224 111h203v500h-133q0 -195 -28 -351q-17 -99 -42 -149z" />
    <glyph glyph-name="afii10022" unicode="&#x415;" 
d="M465 0h-402v722h394v-111h-243v-178h224v-111h-224v-211h251v-111z" />
    <glyph glyph-name="afii10024" unicode="&#x416;" horiz-adv-x="865" 
d="M359 370h-2l-173 -370h-170l202 398l-202 324h166l177 -309h2v309h151v-309h2l177 309h166l-202 -324l202 -398h-170l-173 370h-2v-370h-151v370z" />
    <glyph glyph-name="afii10025" unicode="&#x417;" horiz-adv-x="527" 
d="M202 544h-147q0 109 47 149.5t161 40.5q103 0 151.5 -45.5t48.5 -148.5q0 -38 -7.5 -70t-31 -59t-60.5 -32v-2q45 -9 70.5 -36.5t32.5 -60.5t7 -81q0 -110 -57 -160.5t-170 -50.5q-109 0 -154.5 45.5t-45.5 160.5h147v-24.5t1.5 -21.5t5 -22.5t10 -15.5t18 -13t26.5 -3
q24 0 39.5 10t22 28.5t8.5 34.5t2 40q0 74 -26.5 92.5t-110.5 18.5v116q76 -3 101 15.5t25 91.5q0 87 -57 87q-36 0 -46.5 -22.5t-10.5 -61.5z" />
    <glyph glyph-name="afii10026" unicode="&#x418;" horiz-adv-x="611" 
d="M219 283h2l161 439h161v-722h-151v439h-2l-161 -439h-161v722h151v-439z" />
    <glyph glyph-name="afii10027" unicode="&#x419;" horiz-adv-x="611" 
d="M543 0h-151v439h-2l-161 -439h-161v722h151v-439h2l161 439h161v-722zM146 915h75q7 -50 85 -50t85 50h75q-4 -60 -47.5 -95t-112.5 -35t-112.5 35t-47.5 95z" />
    <glyph glyph-name="afii10028" unicode="&#x41a;" horiz-adv-x="556" 
d="M207 413l177 309h166l-202 -324l202 -398h-170l-173 370h-2v-370h-151v722h151v-309h2z" />
    <glyph glyph-name="afii10029" unicode="&#x41b;" horiz-adv-x="621" 
d="M553 722v-722h-151v611h-128v-175q0 -192 -19.5 -267t-80.5 -138q-20 -21 -49.5 -31t-51.5 -10q-45 0 -69 19v123q10 -8 31 -8q26 0 41 21q35 48 41 104.5t6 270.5v202h430z" />
    <glyph glyph-name="afii10030" unicode="&#x41c;" horiz-adv-x="833" 
d="M207 0h-147v722h243l113 -491h2l120 491h235v-722h-147v557h-2l-139 -557h-144l-132 557h-2v-557z" />
    <glyph glyph-name="afii10031" unicode="&#x41d;" horiz-adv-x="611" 
d="M219 433h173v289h151v-722h-151v322h-173v-322h-151v722h151v-289z" />
    <glyph glyph-name="afii10032" unicode="&#x41e;" horiz-adv-x="611" 
d="M305 96q60 0 78 57.5t18 207.5t-18 207.5t-78 57.5t-78 -57.5t-18 -207.5t18 -207.5t78 -57.5zM305 -12q-72 0 -121.5 23t-74 51.5t-37 87.5t-14.5 97.5t-2 113.5q0 76 2 114.5t14.5 97t37 87.5t74 51.5t121.5 22.5t121.5 -22.5t74 -51.5t37 -87.5t14.5 -97t2 -114.5
q0 -75 -2 -113.5t-14.5 -97.5t-37 -87.5t-74 -51.5t-121.5 -23z" />
    <glyph glyph-name="afii10033" unicode="&#x41f;" horiz-adv-x="611" 
d="M543 722v-722h-151v611h-173v-611h-151v722h475z" />
    <glyph glyph-name="afii10034" unicode="&#x420;" horiz-adv-x="556" 
d="M215 611v-206h84q33 0 54.5 29.5t21.5 67.5q0 109 -84 109h-76zM64 0v722h272q192 0 192 -216q0 -29 -3.5 -54t-16.5 -55.5t-33.5 -52t-58.5 -36t-89 -14.5h-112v-294h-151z" />
    <glyph glyph-name="afii10035" unicode="&#x421;" horiz-adv-x="556" 
d="M305 -12q-72 0 -121.5 23t-74 51.5t-37 87.5t-14.5 97.5t-2 113.5q0 76 2 114.5t14.5 97t37 87.5t74 51.5t121.5 22.5q113 0 164 -60.5t46 -179.5h-148q0 72 -14 102t-48 30q-60 0 -78 -57.5t-18 -207.5t18 -207.5t78 -57.5q23 0 37.5 12.5t20.5 33.5t8 42.5t3 45.5v13
h149q0 -140 -53.5 -197.5t-164.5 -57.5z" />
    <glyph glyph-name="afii10036" unicode="&#x422;" 
d="M6 722h487v-120h-168v-602h-151v602h-168v120z" />
    <glyph glyph-name="afii10037" unicode="&#x423;" horiz-adv-x="556" 
d="M551 722l-182 -548q-62 -186 -192 -186q-33 0 -73 22v109q16 -16 50 -16q16 0 31.5 9.5t20.5 17.5q16 25 5 55l-206 537h157l118 -347l9 -50l8 50l105 347h149z" />
    <glyph glyph-name="afii10038" unicode="&#x424;" horiz-adv-x="818" 
d="M484 199h54q38 0 57 38t19 149q0 103 -17 141t-67 38h-46v-366zM333 199v366h-46q-50 0 -67 -38t-17 -141q0 -111 19 -149t57 -38h54zM333 0v88h-82q-52 0 -89 14t-58.5 37.5t-33.5 64t-16 82.5t-4 104q0 153 44.5 219.5t147.5 66.5h91v46h151v-46h91q103 0 147.5 -66.5
t44.5 -219.5q0 -62 -4 -104t-16 -82.5t-33.5 -64t-58.5 -37.5t-89 -14h-82v-88h-151z" />
    <glyph glyph-name="afii10039" unicode="&#x425;" horiz-adv-x="556" 
d="M190 378l-174 344h172l103 -237l101 237h157l-180 -357l183 -365h-171l-111 249l-111 -249h-156z" />
    <glyph glyph-name="afii10040" unicode="&#x426;" horiz-adv-x="611" 
d="M439 0h-371v722h151v-611h173v611h151v-611h47v-272h-151v161z" />
    <glyph glyph-name="afii10041" unicode="&#x427;" horiz-adv-x="581" 
d="M362 400v322h151v-722h-151v292h-68q-122 0 -184 58.5t-62 163.5v208h151v-198q0 -124 93 -124h70z" />
    <glyph glyph-name="afii10042" unicode="&#x428;" horiz-adv-x="935" 
d="M68 0v722h151v-611h173v611h151v-611h173v611h151v-722h-799z" />
    <glyph glyph-name="afii10043" unicode="&#x429;" horiz-adv-x="935" 
d="M68 0v722h151v-611h173v611h151v-611h173v611h151v-611h47v-272h-151v161h-695z" />
    <glyph glyph-name="afii10044" unicode="&#x42a;" horiz-adv-x="616" 
d="M434 220q0 38 -21.5 67.5t-54.5 29.5h-79v-206h71q84 0 84 109zM128 602h-122v120h273v-294h107q51 0 89 -14.5t58.5 -36t33.5 -52t16.5 -55.5t3.5 -54q0 -216 -192 -216h-267v602z" />
    <glyph glyph-name="afii10045" unicode="&#x42b;" horiz-adv-x="812" 
d="M527 216q0 -216 -192 -216h-267v722h151v-294h107q51 0 89 -14.5t58.5 -36t33.5 -52t16.5 -55.5t3.5 -54zM374 220q0 38 -21.5 67.5t-54.5 29.5h-79v-206h71q84 0 84 109zM744 0h-151v722h151v-722z" />
    <glyph glyph-name="afii10046" unicode="&#x42c;" horiz-adv-x="556" 
d="M527 216q0 -216 -192 -216h-267v722h151v-294h107q51 0 89 -14.5t58.5 -36t33.5 -52t16.5 -55.5t3.5 -54zM374 220q0 38 -21.5 67.5t-54.5 29.5h-79v-206h71q84 0 84 109z" />
    <glyph glyph-name="afii10047" unicode="&#x42d;" horiz-adv-x="556" 
d="M347 322h-156v111h155q-3 106 -22.5 149.5t-72.5 43.5q-34 0 -48 -30t-14 -102h-148q-5 119 46 179.5t164 60.5q72 0 121.5 -22.5t74 -51.5t37 -87.5t14.5 -97t2 -114.5q0 -75 -2 -113.5t-14.5 -97.5t-37 -87.5t-74 -51.5t-121.5 -23q-111 0 -164.5 57.5t-53.5 197.5h149
q3 -80 13 -106q15 -41 56 -41q57 0 75.5 50.5t20.5 175.5z" />
    <glyph glyph-name="afii10048" unicode="&#x42e;" horiz-adv-x="866" 
d="M563 96q60 0 78 57.5t18 207.5t-18 207.5t-78 57.5t-78 -57.5t-18 -207.5t18 -207.5t78 -57.5zM314 322h-95v-322h-151v722h151v-289h95q1 55 6.5 94t21 81t41.5 67.5t71.5 42t108.5 16.5q72 0 121.5 -22.5t74 -51.5t37 -87.5t14.5 -97t2 -114.5q0 -75 -2 -113.5
t-14.5 -97.5t-37 -87.5t-74 -51.5t-121.5 -23q-67 0 -114.5 19t-73 47t-40 76t-18 89t-3.5 103z" />
    <glyph glyph-name="afii10049" unicode="&#x42f;" horiz-adv-x="556" 
d="M492 0h-151v299h-39q-20 0 -36 -3t-27 -8.5t-19 -13t-13 -17.5t-8 -21.5t-4 -24t-1.5 -27t0.5 -28.5v-16v-23v-25t-0.5 -22.5t-2.5 -24.5t-5 -22t-8 -23h-148q17 36 17 212q0 37 11.5 64.5t24.5 41t35.5 22.5t32 10.5t27.5 3.5v2q-134 22 -134 177q0 91 45 140t124 49
h279v-722zM341 410v201h-67q-77 0 -77 -95q0 -42 18 -74t59 -32h67z" />
    <glyph glyph-name="afii10065" unicode="&#x430;" 
d="M301 244q-4 0 -20 -0.5t-20 -1t-17 -1.5t-16.5 -3t-13 -5t-13 -7.5t-9 -11t-7.5 -14.5t-4 -19t-2 -24q0 -80 52 -80q17 0 30 6t20.5 18.5t12 23.5t6 31t2 30.5t0 31.5t-0.5 26zM439 346v-252q0 -22 7 -94h-131l-6 67h-2q-44 -77 -132 -77q-69 0 -101.5 44.5t-32.5 116.5
q0 48 15.5 82t37.5 51.5t60 26.5t68.5 11t78.5 1v39q0 38 -11 56t-46 18q-33 0 -43 -20t-10 -57h-138q0 87 52 123q44 33 132 33q65 0 107 -12.5t61.5 -38t26.5 -52.5t7 -66z" />
    <glyph glyph-name="afii10066" unicode="&#x431;" 
d="M315 282q0 80 -14.5 111.5t-52.5 31.5q-37 0 -50.5 -32.5t-13.5 -107.5q0 -38 0.5 -61t2.5 -49.5t6.5 -41.5t11.5 -28.5t18 -19t27 -5.5q45 0 57 53q8 33 8 149zM169 455l1 -1l16 14q15 14 23 19t28.5 11.5t44.5 6.5q104 0 139 -61.5t35 -190.5q0 -82 -15 -136t-44 -80.5
t-62 -36.5t-80 -10q-40 0 -69 5.5t-57.5 22.5t-45.5 47t-28 80.5t-11 121.5q0 119 16 197t67 127q49 49 144 74q44 9 44 69h141q0 -57 -11 -82.5t-44 -47.5q-27 -18 -83 -30t-86 -32q-12 -8 -32.5 -33.5t-30.5 -53.5z" />
    <glyph glyph-name="afii10067" unicode="&#x432;" 
d="M264 79q25 0 40.5 21t15.5 49q0 81 -59 81h-64v-151h67zM197 426v-117h62q49 0 49 65q0 25 -15 38.5t-37 13.5h-59zM274 505q87 0 130 -28.5t43 -98.5q0 -102 -91 -113v-2q61 -8 83 -39.5t22 -83.5q0 -76 -52 -108t-151 -32h-202v505h218z" />
    <glyph glyph-name="afii10068" unicode="&#x433;" horiz-adv-x="389" 
d="M197 415v-415h-141v505h319v-90h-178z" />
    <glyph glyph-name="afii10069" unicode="&#x434;" horiz-adv-x="544" 
d="M533 -161h-141v161h-242v-161h-141v251h48q16 17 28.5 39t20.5 41.5t14 51.5t8.5 51t4 58t2 55.5t0 61t-0.5 57.5h351v-415h48v-251zM344 90v325h-71q0 -115 -16.5 -204.5t-45.5 -120.5h133z" />
    <glyph glyph-name="afii10070" unicode="&#x435;" 
d="M186 309h129v32.5t-3.5 30t-9.5 30t-19.5 18t-32.5 8.5q-23 0 -37 -11t-19.5 -33.5t-6.5 -36.5t-1 -38zM456 230h-270q0 -30 1.5 -50t7 -46.5t19.5 -40t36 -13.5q60 0 60 90h143q-3 -85 -54 -131q-52 -49 -149 -49q-53 0 -91 13.5t-60 35t-34.5 58t-16.5 73t-4 89.5
q0 60 6.5 99.5t26.5 78.5t63 58.5t110 19.5q55 0 94.5 -14.5t61.5 -38.5t34 -62.5t15 -77t1 -92.5z" />
    <glyph glyph-name="afii10072" unicode="&#x436;" horiz-adv-x="750" 
d="M306 0v275h-2l-131 -275h-159l159 280l-143 225h147l127 -213h2v213h141v-213h2l127 213h147l-143 -225l159 -280h-159l-131 275h-2v-275h-141z" />
    <glyph glyph-name="afii10073" unicode="&#x437;" horiz-adv-x="450" 
d="M181 376h-138q0 76 43.5 107.5t140.5 31.5q173 0 173 -137q0 -42 -21.5 -74.5t-72.5 -38.5v-2q61 -8 83 -39.5t22 -83.5q0 -150 -202 -150q-90 0 -132 36t-42 116h138q0 -71 45 -71q52 0 52 74q0 54 -17 66.5t-82 12.5v80q61 0 75.5 11.5t14.5 64.5q0 56 -39 56
q-20 0 -30.5 -18t-10.5 -42z" />
    <glyph glyph-name="afii10074" unicode="&#x438;" 
d="M197 0h-141v505h141v-275l106 275h141v-505h-141v275z" />
    <glyph glyph-name="afii10075" unicode="&#x439;" 
d="M197 0h-141v505h141v-275l106 275h141v-505h-141v275zM110 698h68q3 -28 26.5 -40.5t49.5 -12.5q27 0 50 12.5t26 40.5h68q-4 -59 -43 -92t-101 -33t-101 33t-43 92z" />
    <glyph glyph-name="afii10076" unicode="&#x43a;" 
d="M194 0h-141v505h141v-213h2l127 213h147l-143 -225l159 -280h-159l-131 275h-2v-275z" />
    <glyph glyph-name="afii10077" unicode="&#x43b;" horiz-adv-x="510" 
d="M454 0h-141v394h-86v-56q0 -255 -63 -310q-40 -34 -103 -34q-9 0 -21 4t-20 8l-8 4v113q16 -14 29 -14t23 12q5 8 9 20t6.5 30.5t4 32.5t2 40t0.5 39v44v41v137h368v-505z" />
    <glyph glyph-name="afii10078" unicode="&#x43c;" horiz-adv-x="694" 
d="M643 0h-141v389h-3l-91 -389h-117l-91 389h-3v-389h-141v505h220l72 -344h3l72 344h220v-505z" />
    <glyph glyph-name="afii10079" unicode="&#x43d;" 
d="M197 219v-219h-141v505h141v-196h106v196h141v-505h-141v219h-106z" />
    <glyph glyph-name="afii10080" unicode="&#x43e;" 
d="M250 80q39 0 52 36t13 151q0 88 -11.5 123t-53.5 35t-53.5 -35t-11.5 -123q0 -115 13 -151t52 -36zM250 -10q-53 0 -91 13.5t-60 35t-34.5 58t-16.5 73t-4 89.5q0 60 6.5 99.5t26.5 78.5t63 58.5t110 19.5t110 -19.5t63 -58.5t26.5 -78.5t6.5 -99.5q0 -53 -4 -89.5
t-16.5 -73t-34.5 -58t-60 -35t-91 -13.5z" />
    <glyph glyph-name="afii10081" unicode="&#x43f;" 
d="M197 415v-415h-141v505h388v-505h-141v415h-106z" />
    <glyph glyph-name="afii10082" unicode="&#x440;" 
d="M254 77q37 0 48.5 39.5t11.5 140.5q0 109 -12 138q-15 32 -48 33q-14 0 -24 -4.5t-16 -17t-9.5 -23.5t-5 -35t-2 -39t-0.5 -47v-5q0 -101 11.5 -140.5t45.5 -39.5zM56 505h134v-56h2q35 66 119 66q29 0 52 -9.5t38 -22.5t25 -37t15 -42t7.5 -49.5t3 -48t0.5 -47.5v-10
v-47.5t-2.5 -47.5t-7 -51t-14.5 -42t-24.5 -38.5t-37.5 -22.5t-52 -10q-76 0 -115 58h-2v-265h-141v722z" />
    <glyph glyph-name="afii10083" unicode="&#x441;" 
d="M454 325h-141q0 55 -14.5 77.5t-48.5 22.5q-42 0 -53.5 -35t-11.5 -123q0 -115 13 -151t52 -36q65 0 65 106h141q0 -196 -206 -196q-53 0 -91 13.5t-60 35t-34.5 58t-16.5 73t-4 89.5q0 60 6.5 99.5t26.5 78.5t63 58.5t110 19.5q204 0 204 -190z" />
    <glyph glyph-name="afii10084" unicode="&#x442;" horiz-adv-x="444" 
d="M293 415v-415h-141v415h-133v90h407v-90h-133z" />
    <glyph glyph-name="afii10085" unicode="&#x443;" horiz-adv-x="444" 
d="M92 -191l54 187l-137 509h140l72 -355h2l76 355h136l-195 -696h-148z" />
    <glyph glyph-name="afii10086" unicode="&#x444;" horiz-adv-x="740" 
d="M696 252v-47.5t-2.5 -48t-7 -51.5t-14.5 -42.5t-24.5 -39.5t-37.5 -23t-52 -10q-76 0 -115 58h-2v-265h-141v265h-2q-39 -58 -115 -58q-29 0 -52 10t-37.5 23t-24.5 39.5t-14.5 42.5t-7 51.5t-2.5 48v47.5v42t1.5 42t5 45.5t9.5 40t16 39t24.5 27.5t35 21t46.5 6
q76 0 115 -58h2v265h141v-265h2q39 58 115 58q26 0 46.5 -6t35 -21t24.5 -27.5t16 -39t9.5 -40t5 -45.5t1.5 -42v-42zM558 257q0 109 -12 138q-15 32 -48 33q-14 0 -24 -4.5t-16 -17t-9.5 -23.5t-5 -35t-2 -39t-0.5 -47v-5q0 -101 11.5 -140.5t45.5 -39.5q37 0 48.5 39.5
t11.5 140.5zM300 257v5q0 32 -0.5 47t-2 39t-5 35t-9.5 23.5t-16 17t-24 4.5q-15 0 -25.5 -4.5t-17 -17t-10 -23.5t-5 -35t-2 -39t-0.5 -47v-5q0 -101 11.5 -140.5t48.5 -39.5q34 0 45.5 39.5t11.5 140.5z" />
    <glyph glyph-name="afii10087" unicode="&#x445;" 
d="M238 177l-93 -177h-140l149 265l-137 240h158l74 -153l85 153h141l-135 -242l145 -263h-159z" />
    <glyph glyph-name="afii10088" unicode="&#x446;" 
d="M351 0h-295v505h141v-415h106v415h141v-415h48v-251h-141v161z" />
    <glyph glyph-name="afii10089" unicode="&#x447;" horiz-adv-x="480" 
d="M177 357q0 -38 11 -58t42 -20h53v226h141v-505h-141v189h-121q-53 0 -89.5 29.5t-36.5 80.5v206h141v-148z" />
    <glyph glyph-name="afii10090" unicode="&#x448;" horiz-adv-x="744" 
d="M56 0v505h141v-415h106v415h141v-415h106v415h141v-505h-635z" />
    <glyph glyph-name="afii10091" unicode="&#x449;" horiz-adv-x="744" 
d="M56 0v505h141v-415h106v415h141v-415h106v415h141v-415h48v-251h-141v161h-542z" />
    <glyph glyph-name="afii10092" unicode="&#x44a;" horiz-adv-x="570" 
d="M344 79q25 0 40.5 21t15.5 49q0 81 -59 81h-64v-151h67zM277 505v-196h72q95 0 143.5 -36.5t48.5 -122.5t-50.5 -118t-152.5 -32h-202v415h-117v90h258z" />
    <glyph glyph-name="afii10093" unicode="&#x44b;" horiz-adv-x="690" 
d="M244 79q25 0 40.5 21t15.5 49q0 81 -59 81h-44v-151h47zM441 150q0 -86 -50.5 -118t-152.5 -32h-182v505h141v-196h52q95 0 143.5 -36.5t48.5 -122.5zM629 505v-505h-141v505h141z" />
    <glyph glyph-name="afii10094" unicode="&#x44c;" horiz-adv-x="490" 
d="M264 79q25 0 40.5 21t15.5 49q0 81 -59 81h-64v-151h67zM461 150q0 -86 -50.5 -118t-152.5 -32h-202v505h141v-196h72q95 0 143.5 -36.5t48.5 -122.5z" />
    <glyph glyph-name="afii10095" unicode="&#x44d;" 
d="M312 299q-2 69 -14.5 97.5t-50.5 28.5q-34 0 -48.5 -22.5t-14.5 -77.5h-141q0 190 204 190q67 0 110 -19.5t63 -58.5t26.5 -78.5t6.5 -99.5q0 -53 -4 -89.5t-16.5 -73t-34.5 -58t-60 -35t-91 -13.5q-206 0 -206 196h141q0 -106 65 -106q35 0 49 28t15 112h-115v79h116z
" />
    <glyph glyph-name="afii10096" unicode="&#x44e;" horiz-adv-x="720" 
d="M470 80q39 0 52 36t13 151q0 88 -11.5 123t-53.5 35t-53.5 -35t-11.5 -123q0 -115 13 -151t52 -36zM265 219h-68v-219h-141v505h141v-196h68q2 47 12 81.5t31.5 64t62 45t99.5 15.5q67 0 110 -19.5t63 -58.5t26.5 -78.5t6.5 -99.5q0 -53 -4 -89.5t-16.5 -73t-34.5 -58
t-60 -35t-91 -13.5q-116 0 -159 57.5t-46 171.5z" />
    <glyph glyph-name="afii10097" unicode="&#x44f;" 
d="M444 0h-141v219h-37q-66 0 -78 -51q-4 -18 -4 -73v-19v-20.5t-1 -16.5t-4 -20.5t-7 -18.5h-141q12 28 12 150q0 96 100 108v1q-40 9 -65 36t-25 72q0 79 41.5 108.5t131.5 29.5h218v-505zM303 298v128h-59q-24 0 -38 -13.5t-14 -49.5q0 -30 15 -47.5t44 -17.5h52z" />
    <glyph glyph-name="afii10071" unicode="&#x451;" 
d="M394 590h-111v108h111v-108zM217 590h-111v108h111v-108zM456 230h-270q0 -30 1.5 -50t7 -46.5t19.5 -40t36 -13.5q60 0 60 90h143q-3 -85 -54 -131q-52 -49 -149 -49q-53 0 -91 13.5t-60 35t-34.5 58t-16.5 73t-4 89.5q0 60 6.5 99.5t26.5 78.5t63 58.5t110 19.5
q55 0 94.5 -14.5t61.5 -38.5t34 -62.5t15 -77t1 -92.5zM315 309v32.5t-3.5 30t-9.5 30t-19.5 18t-32.5 8.5q-23 0 -37 -11t-19.5 -33.5t-6.5 -36.5t-1 -38h129z" />
    <glyph glyph-name="afii10099" unicode="&#x452;" 
d="M444 -56q0 -77 -32.5 -111t-98.5 -34q-23 0 -47 3v89q10 0 17 2t13.5 11t6.5 26v418q0 39 -11 59.5t-42 20.5t-42 -20.5t-11 -59.5v-348h-141v562h-46v87h46v73h141v-73h84v-87h-84v-108h2q38 61 119 61q53 0 89.5 -29.5t36.5 -80.5v-461z" />
    <glyph glyph-name="afii10100" unicode="&#x453;" horiz-adv-x="389" 
d="M197 415v-415h-141v505h319v-90h-178zM224 722h135l-160 -143h-65z" />
    <glyph glyph-name="afii10101" unicode="&#x454;" 
d="M456 186q0 -196 -206 -196q-53 0 -91 13.5t-60 35t-34.5 58t-16.5 73t-4 89.5q0 60 6.5 99.5t26.5 78.5t63 58.5t110 19.5q204 0 204 -190h-141q0 55 -14.5 77.5t-48.5 22.5q-38 0 -50.5 -28.5t-14.5 -97.5h116v-79h-115q1 -84 15 -112t49 -28q65 0 65 106h141z" />
    <glyph glyph-name="afii10102" unicode="&#x455;" horiz-adv-x="444" 
d="M28 162h138q-2 -41 7 -61q12 -24 51 -24q22 0 37 14t15 38q0 29 -25.5 50.5t-62 36t-73 32t-62 49t-25.5 76.5q0 51 32 84.5t74.5 45.5t92.5 12q79 0 130 -39t45 -116h-138q0 52 -14 65q-11 11 -36 11q-48 0 -48 -54q0 -22 25.5 -39.5t62 -33t73 -34.5t62 -52.5
t25.5 -78.5q0 -67 -51.5 -110.5t-137.5 -43.5q-102 0 -152.5 36.5t-44.5 135.5z" />
    <glyph glyph-name="afii10103" unicode="&#x456;" horiz-adv-x="278" 
d="M209 505v-505h-141v505h141zM68 722h141v-111h-141v111z" />
    <glyph glyph-name="afii10104" unicode="&#x457;" horiz-adv-x="278" 
d="M209 505v-505h-141v505h141zM282 590h-111v108h111v-108zM105 590h-111v108h111v-108z" />
    <glyph glyph-name="afii10105" unicode="&#x458;" horiz-adv-x="278" 
d="M68 505h141v-551q0 -77 -32.5 -111t-98.5 -34q-23 0 -47 3v89q10 0 17 2t13.5 11t6.5 26v565zM68 722h141v-111h-141v111z" />
    <glyph glyph-name="afii10106" unicode="&#x459;" horiz-adv-x="720" 
d="M698 150q0 -86 -50.5 -118t-152.5 -32h-182v394h-86v-56q0 -255 -63 -310q-40 -34 -103 -34q-9 0 -21 4t-20 8l-8 4v113q16 -14 29 -14t23 12q5 8 9 20t6.5 30.5t4 32.5t2 40t0.5 39v44v41v137h368v-196h52q95 0 143.5 -36.5t48.5 -122.5zM557 149q0 81 -59 81h-44v-151
h47q25 0 40.5 21t15.5 49z" />
    <glyph glyph-name="afii10107" unicode="&#x45a;" horiz-adv-x="720" 
d="M688 150q0 -86 -50.5 -118t-152.5 -32h-182v219h-106v-219h-141v505h141v-196h106v196h141v-196h52q95 0 143.5 -36.5t48.5 -122.5zM547 149q0 81 -59 81h-44v-151h47q25 0 40.5 21t15.5 49z" />
    <glyph glyph-name="afii10108" unicode="&#x45b;" 
d="M197 562v-108h2q38 61 119 61q53 0 89.5 -29.5t36.5 -80.5v-405h-141v348q0 39 -11 59.5t-42 20.5t-42 -20.5t-11 -59.5v-348h-141v562h-46v87h46v73h141v-73h84v-87h-84z" />
    <glyph glyph-name="afii10109" unicode="&#x45c;" 
d="M194 0h-141v505h141v-213h2l127 213h147l-143 -225l159 -280h-159l-131 275h-2v-275zM254 722h135l-160 -143h-65z" />
    <glyph glyph-name="afii10110" unicode="&#x45e;" horiz-adv-x="444" 
d="M92 -191l54 187l-137 509h140l72 -355h2l76 355h136l-195 -696h-148zM85 698h68q3 -28 26.5 -40.5t49.5 -12.5q27 0 50 12.5t26 40.5h68q-4 -59 -43 -92t-101 -33t-101 33t-43 92z" />
    <glyph glyph-name="afii10193" unicode="&#x45f;" 
d="M444 0h-122v-161h-141v161h-125v505h141v-415h106v415h141v-505z" />
    <glyph glyph-name="afii10050" unicode="&#x490;" horiz-adv-x="444" 
d="M159 238l85 184q-9 3 -22 3q-42 0 -53.5 -35t-11.5 -123v-29h2zM279 382l-114 -245q6 -31 19 -43.5t38 -12.5q65 0 65 108h141q0 -198 -206 -198q-74 0 -115 24l-39 -78l-44 24l43 84q-51 56 -51 214q0 60 6.5 99.5t26.5 78.5t63 58.5t110 19.5q35 0 62 -6l38 82l44 -22
l-35 -75q95 -38 95 -169h-141q0 36 -6 57z" />
    <glyph glyph-name="afii10098" unicode="&#x491;" 
d="M250 80q39 0 52 36t13 151q0 88 -11.5 123t-53.5 35t-53.5 -35t-11.5 -123q0 -115 13 -151t52 -36zM247 595q-48 54 -107 79l60 60q71 -16 119 -67q137 -144 137 -408q0 -53 -4 -89.5t-16.5 -73t-34.5 -58t-60 -35t-91 -13.5t-91 13.5t-60 35t-34.5 58t-16.5 73t-4 89.5
q0 112 59 183.5t179 72.5q0 40 -35 80z" />
    <glyph glyph-name="endash" unicode="&#x2013;" 
d="M500 309v-79h-500v79h500z" />
    <glyph glyph-name="emdash" unicode="&#x2014;" horiz-adv-x="1000" 
d="M0 230v79h1000v-79h-1000z" />
    <glyph glyph-name="quoteleft" unicode="&#x2018;" horiz-adv-x="222" 
d="M195 722l-35 -197h-134l73 197h96z" />
    <glyph glyph-name="quoteright" unicode="&#x2019;" horiz-adv-x="222" 
d="M26 525l35 197h134l-73 -197h-96z" />
    <glyph glyph-name="quotedblleft" unicode="&#x201c;" horiz-adv-x="444" 
d="M395 722l-35 -197h-134l73 197h96zM217 722l-35 -197h-134l73 197h96z" />
    <glyph glyph-name="quotedblright" unicode="&#x201d;" horiz-adv-x="444" 
d="M48 525l35 197h134l-73 -197h-96zM226 525l35 197h134l-73 -197h-96z" />
    <glyph glyph-name="quotedblbase" unicode="&#x201e;" horiz-adv-x="444" 
d="M48 -97l35 197h134l-73 -197h-96zM226 -97l35 197h134l-73 -197h-96z" />
    <glyph glyph-name="dagger" unicode="&#x2020;" horiz-adv-x="444" 
d="M5 568h157v154h120v-154h157v-97h-157v-471h-120v471h-157v97z" />
    <glyph glyph-name="bullet" unicode="&#x2022;" horiz-adv-x="420" 
d="M390 361q0 -75 -52.5 -127.5t-127.5 -52.5t-127.5 52.5t-52.5 127.5t52.5 127.5t127.5 52.5t127.5 -52.5t52.5 -127.5z" />
    <glyph glyph-name="ellipsis" unicode="&#x2026;" horiz-adv-x="1000" 
d="M107 132h120v-132h-120v132zM440 132h120v-132h-120v132zM773 132h120v-132h-120v132z" />
    <glyph glyph-name="Euro" unicode="&#x20ac;" horiz-adv-x="444" 
d="M409 680v-118q-30 32 -96 32q-47 0 -72.5 -29.5t-32.5 -92.5h176l-26 -92h-159q0 -4 -0.5 -13t-0.5 -14q0 -6 0.5 -16.5t0.5 -14.5h141l-26 -92h-106q13 -125 106 -125q62 0 95 31v-120q-33 -24 -118 -24q-177 0 -207 238h-68l26 92h33q-1 8 -1 30q0 18 1 28h-59l26 92
h40q30 235 209 235q82 0 118 -27z" />
    <glyph glyph-name="afii61352" unicode="&#x2116;" horiz-adv-x="975" 
d="M205 0h-141v722h204l192 -500h2v500h141v-722h-199l-197 528h-2v-528zM657 0v90h270v-90h-270zM792 189q24 0 31 20t7 85q0 49 -6.5 68t-31.5 19t-31.5 -19t-6.5 -68q0 -65 7 -85t31 -20zM792 127q-81 0 -107.5 40.5t-26.5 121.5q0 75 26 114.5t108 39.5t108 -39.5
t26 -114.5q0 -81 -26.5 -121.5t-107.5 -40.5z" />
    <glyph glyph-name="trademark" unicode="&#x2122;" horiz-adv-x="860" 
d="M820 722v-433h-96v334h-2l-89 -334h-94l-85 334h-2v-334h-96v433h159l73 -295h2l77 295h153zM3 722h317v-72h-111v-361h-96v361h-110v72z" />
    <glyph glyph-name="radical" unicode="&#x221a;" horiz-adv-x="549" 
d="M550 939l-169 -1080l-274 565l-93 -45l-44 86l201 96l166 -344l118 735z" />
    <glyph glyph-name="infinity" unicode="&#x221e;" horiz-adv-x="752" 
d="M736 282q7 -70 -45 -130t-129 -52q-95 9 -182 96q-87 -87 -182 -96q-77 -8 -129 52t-45 130q9 80 81.5 124t155.5 8q32 -15 55.5 -31.5t63.5 -51.5q40 35 63.5 51.5t55.5 31.5q83 36 155.5 -8t81.5 -124zM636 260q1 29 -26 52.5t-70 8.5q-29 -9 -90 -58
q33 -32 51.5 -44.5t49.5 -19.5t57.5 11.5t27.5 49.5zM310 263q-61 49 -90 58q-43 15 -70 -8.5t-26 -52.5q1 -31 27.5 -49.5t57.5 -11.5t49.5 19.5t51.5 44.5z" />
    <glyph glyph-name="approxequal" unicode="&#x2248;" horiz-adv-x="600" 
d="M593 398q-42 -69 -104 -95.5t-116 -10.5l-150 43q-16 5 -30 5.5t-25.5 -3t-20 -8t-17 -13t-13.5 -14t-12.5 -15t-10.5 -13.5l-86 53q106 139 239 102l151 -42q25 -8 62 8q25 10 54 54zM593 207q-42 -69 -104 -95.5t-116 -10.5l-150 43q-16 5 -30 5.5t-25.5 -3t-20 -8
t-17 -13t-13.5 -14t-12.5 -15t-10.5 -13.5l-86 53q106 139 239 102l151 -42q25 -8 62 8q25 10 54 54z" />
    <glyph glyph-name="notequal" unicode="&#x2260;" 
d="M470 99h-277l-56 -127h-102l56 127h-71v111h120l37 85h-157v111h206l64 144h105q-64 -144 -65 -144h140v-111h-189l-38 -85h227v-111z" />
    <glyph glyph-name="lessequal" unicode="&#x2264;" horiz-adv-x="549" 
d="M551 78l-547 253v94l547 253v-117l-398 -183l398 -183v-117zM551 -25h-547v105h547v-105z" />
    <glyph glyph-name="greaterequal" unicode="&#x2265;" horiz-adv-x="549" 
d="M551 331l-547 -253v117l398 183l-398 183v117l547 -253v-94zM551 -25h-547v105h547v-105z" />
    <glyph glyph-name="lozenge" unicode="&#x25ca;" horiz-adv-x="444" 
d="M48 -97l35 197h134l-73 -197h-96zM226 -97l35 197h134l-73 -197h-96z" />
    <glyph glyph-name="DC1" horiz-adv-x="0" 
d="M97 -391q0 -9 -9 -9t-9 9q0 5 5 8q-5 2 -5 7q0 8 9 8t9 -8q0 -5 -5 -7q5 -3 5 -8zM45 -398q0 -1 -1 -1h-18q-1 0 -1 1v2h1q17 16 17 19q0 7 -7 7q-6 0 -8 -6q-1 0 -2 1q2 7 10 7q9 0 9 -9q0 -4 -18 -20h16v1q0 1 1 1t1 -1v-2zM20 -398q0 -1 -1 -1h-18q-1 0 -1 1v2h1
q17 16 17 19q0 7 -7 7q-6 0 -8 -6q-1 0 -2 1q2 7 10 7q9 0 9 -9q0 -4 -18 -20h16v1q0 1 1 1t1 -1v-2zM72 -389q0 -11 -10 -11q-6 0 -10 4q-1 1 0 2t2 0q4 -4 8 -4q8 0 8 9q0 8 -7 8q-3 0 -7 -2h-1v0q-1 0 -1 1v12l1 1h14q1 0 1 -1t-1 -1h-13v-10q4 2 7 2q9 0 9 -10zM95 -376
q0 6 -7 6t-7 -6t7 -6t7 6zM95 -391q0 7 -7 7t-7 -7t7 -7t7 7z" />
    </font>
</defs>
</svg>
